<svg id="Ebene_1" data-name="Ebene 1" xmlns="http://www.w3.org/2000/svg" viewBox="0 0 672.22 108.48"><defs><style>.cls-1{fill:#646363;}.cls-2{fill:#950a2a;}</style></defs><path class="cls-1" d="M630.4,108.15l-5.27-9.39,4.2-5h-3.46l-4,4.9c-.39.47-.92,1.12-1.13,1.45,0-.45,0-1.74,0-2.27V93.8h-2.87v14.35h2.87v-4.23l2.3-2.7,3.89,6.93Zm-31.14,0v-2.81h-7.4v-3.47H596V99.09h-4.12V96.61H599V93.8H589v14.35Zm-31.73-4.59c0,1.12-.66,1.86-2.06,1.86h-3.81v-3.71h3.81c1.4,0,2.06.62,2.06,1.85m-.46-5.74c0,.79-.43,1.35-1.62,1.35h-3.79V96.44h3.65c1.25,0,1.76.47,1.76,1.38m3.41,5.69a3.29,3.29,0,0,0-2-3.13A3.16,3.16,0,0,0,570,97.59c0-2.46-1.76-3.79-4.55-3.79h-6.58v14.35h6.52c3.08,0,5.11-1.62,5.11-4.64m-30.9,4.64V93.8h-2.83l-2.89,6.5c-.37.82-.77,1.86-1,2.39-.18-.51-.62-1.59-1-2.39l-3-6.5h-2.76v14.35H529v-5.27c0-.78,0-2.6,0-3.16.21.53.64,1.56,1,2.38l2.91,6.38,2.91-6.38c.37-.82.8-1.85,1-2.38,0,.56,0,2.38,0,3.16v5.27Zm-35-9.74c0,1.25-.72,1.87-2.05,1.87h-3.75V96.59h3.75c1.27,0,2.05.53,2.05,1.82m2.95,9.74-2.74-5.58a4.09,4.09,0,0,0,2.74-4.22c0-3.06-2.23-4.55-4.94-4.55h-6.68v14.35h2.87V103h2.89l2.56,5.17Zm-35.14-5.93h-3.28l.93-2.6c.29-.84.57-1.7.72-2.23.14.53.43,1.39.71,2.23Zm5.27,5.93L472.24,93.8h-2.79L464,108.15H467l1.13-3.2h5.25l1.13,3.2ZM444,103.56c0,1.12-.65,1.86-2.05,1.86h-3.81v-3.71H442c1.4,0,2.05.62,2.05,1.85m-.45-5.74c0,.79-.43,1.35-1.62,1.35h-3.79V96.44h3.65c1.25,0,1.76.47,1.76,1.38m3.4,5.69a3.28,3.28,0,0,0-2-3.13,3.15,3.15,0,0,0,1.52-2.79c0-2.46-1.76-3.79-4.55-3.79h-6.58v14.35h6.52c3.07,0,5.1-1.62,5.1-4.64m-52.41,4.64V93.8h-2.83v6.07c0,.79,0,2.6,0,3.13-.19-.37-.66-1.08-1-1.62l-5.08-7.58h-2.75v14.35h2.83v-6.32c0-.8,0-2.6,0-3.13.18.37.66,1.08,1,1.62l5.27,7.83ZM361.5,101c0,2.91-1.33,4.53-3.34,4.53s-3.4-1.66-3.4-4.57,1.33-4.53,3.34-4.53,3.4,1.66,3.4,4.57m2.95,0c0-4.63-2.56-7.38-6.29-7.38s-6.36,2.79-6.36,7.42,2.57,7.38,6.32,7.38,6.33-2.79,6.33-7.42M335.12,93.8H332l-2.64,8.3c-.27.84-.54,1.82-.66,2.36-.12-.52-.41-1.56-.68-2.36l-2.7-8.3h-3.18l5.1,14.35H330Zm-52.77,14.35V93.8h-2.83v6.07c0,.79,0,2.6,0,3.13-.18-.37-.65-1.08-1-1.62l-5.09-7.58h-2.74v14.35h2.82v-6.32c0-.8,0-2.6,0-3.13.19.37.66,1.08,1,1.62l5.27,7.83Zm-30.26,0v-2.81h-7.4v-3.47h4.12V99.09h-4.12V96.61h7.1V93.8h-10v14.35Zm-29.09,0v-2.63h-4.94c-.84,0-2.33,0-2.91,0,.37-.36,1.19-1.31,1.64-1.86l6.11-7.36V93.8H212.1v2.62h4.49c.84,0,2.33,0,2.91,0-.37.37-1.19,1.31-1.64,1.87l-6.17,7.36v2.54Zm-32.16-9.74c0,1.25-.72,1.87-2.05,1.87H185V96.59h3.75c1.27,0,2.05.53,2.05,1.82m2.95,9.74L191,102.57a4.09,4.09,0,0,0,2.75-4.22c0-3.06-2.23-4.55-4.94-4.55h-6.68v14.35H185V103h2.89l2.56,5.17Zm-30.26,0v-2.81h-7.4v-3.47h4.12V99.09h-4.12V96.61h7.1V93.8h-10v14.35Zm-29.54,0V93.8h-2.87v5.49h-5.88V93.8h-2.87v14.35h2.87v-6h5.88v6Zm-52.42,0V93.8H78.75l-2.89,6.5c-.37.82-.78,1.86-1,2.39-.18-.51-.61-1.59-1-2.39l-3-6.5H68.15v14.35H71v-5.27c0-.78,0-2.6,0-3.16.21.53.64,1.56,1,2.38l2.91,6.38,2.91-6.38c.37-.82.8-1.85,1-2.38,0,.56,0,2.38,0,3.16v5.27ZM48.67,93.8H45.8v14.35h2.87Z"/><path class="cls-1" d="M672.22,70.52V67a47.93,47.93,0,0,0-8.92-1.43V6.25a47.93,47.93,0,0,0,8.92-1.43V1.33h-24.4V4.82a48.06,48.06,0,0,0,8.92,1.43V65.6A48.06,48.06,0,0,0,647.82,67v3.49ZM619.83,47.05h-28l10.87-29.52c1.12-3.28,2.15-6.36,3.07-9.33h.1c.93,3.18,2,5.94,3.18,9.43Zm20.91,23.47V67A47.3,47.3,0,0,0,634,65.7L609.89,1.33h-7.38L578.22,65.7A50.65,50.65,0,0,0,571.45,67v3.49H593.9V67a45.66,45.66,0,0,0-8.71-1.43L590,52.38h31.67L626.5,65.6A44.47,44.47,0,0,0,617.89,67v3.49Zm-71.85,0V67a45.42,45.42,0,0,0-7.79-1.43L531.58,34.75l28.09-28.5a61.57,61.57,0,0,0,7.69-1.43V1.33h-24V4.82a41.78,41.78,0,0,0,8.2,1.43L524,35V6.25a52.38,52.38,0,0,0,8.3-1.43V1.33H508.52V4.82a47.79,47.79,0,0,0,8.92,1.43V65.6A47.79,47.79,0,0,0,508.52,67v3.49H532.3V67A52.38,52.38,0,0,0,524,65.6V35.36L552.08,65.7A42,42,0,0,0,544.7,67v3.49Z"/><path class="cls-2" d="M502.51,70.52V60.27c-1.84-.41-4.2-.72-5.84-.92l-21-24.91L495.13,12.5c1.64-.2,4-.51,5.85-.92V1.33H471.35V11.68a28.5,28.5,0,0,0,4.31.72L457.82,33.52V12.71a40.07,40.07,0,0,0,6.15-1V1.33H432.92V11.48a76.34,76.34,0,0,0,8.91,1.23V59.14a76.34,76.34,0,0,0-8.91,1.23V70.52H464V60.17a40.07,40.07,0,0,0-6.15-1V36.69l17.94,22.76c-1.23.2-2.87.41-4.3.72V70.52Zm-76.66,0V52.17h-12.3a47.18,47.18,0,0,0-.93,5.54h-13v-17h11a33.24,33.24,0,0,0,.93,4.82h10.35V24.7H411.5a33.6,33.6,0,0,0-.93,4.72h-11V13.84h12.91a44.91,44.91,0,0,0,.92,5.33h12.1V1.33H374.7V11.48a76.22,76.22,0,0,0,8.92,1.23V59.14a76.22,76.22,0,0,0-8.92,1.23V70.52ZM336.37,41.1c1.23-.1,4.51-.1,5.43-.1,7.38,0,12.09,2.77,12.09,8.1s-4,8.61-11.07,8.61a55,55,0,0,1-6.45-.31Zm0-27.16c1.94-.1,3.28-.2,5.84-.2,6.46,0,9.43,2.66,9.43,7.07,0,5.22-2.77,8.4-10.46,8.4-1.94,0-3.48,0-4.81-.1Zm-16,56.58c12,0,18.55.2,22.24.2,20.29,0,28.49-10.76,28.49-21.83a15.62,15.62,0,0,0-11.58-15.27v-.31c6.05-2.66,9-8.5,9-15,0-11.59-8.81-17.43-23.78-17.43-8.51,0-18.86.41-24.8.41h-8.51V11.48a76.22,76.22,0,0,0,8.92,1.23V59.14a76.22,76.22,0,0,0-8.92,1.23V70.52ZM270.05,31.57V13.63c1-.1,3.89-.2,5.43-.2,7.69,0,10.87,3.28,10.87,8.81,0,6-4.1,9.33-11,9.33ZM307,70.52V60.06l-5.64-.92L292.6,43.67a39.34,39.34,0,0,0-2.87-4.31c8.51-2.87,13.43-9.53,13.43-17.94,0-14.76-9.84-20.6-26.45-20.6-8.3,0-20.91.51-23.47.51h-8.1V11.48a76.82,76.82,0,0,0,8.92,1.23V59.14a76.82,76.82,0,0,0-8.92,1.23V70.52h30.34V60.17a38.1,38.1,0,0,0-5.43-1V43.25h4.1l14.14,27.27Zm-69.64,0V52.17H225a48.5,48.5,0,0,0-.92,5.54h-13v-17h11a34.11,34.11,0,0,0,.92,4.82h10.36V24.7H223a34.51,34.51,0,0,0-.92,4.72h-11V13.84H224a44.91,44.91,0,0,0,.92,5.33H237V1.33H186.17V11.48a76.34,76.34,0,0,0,8.91,1.23V59.14a76.34,76.34,0,0,0-8.91,1.23V70.52Zm-68.91,0V60.37a76.34,76.34,0,0,0-8.91-1.23V14.45h8.2a74,74,0,0,0,1.13,7.9h12v-21H122.18v21h12a79.44,79.44,0,0,0,1.13-7.9h8.2V59.14a76.22,76.22,0,0,0-8.92,1.23V70.52ZM73.8,69.9a109.81,109.81,0,0,0,19.27,1.95c17,0,27.06-8.81,27.06-21.83,0-23.27-30.55-19.37-30.55-30.85,0-3.9,3-6.46,8.51-6.46a28.33,28.33,0,0,1,4.72.41,61.56,61.56,0,0,0,.92,7.48h12.2v-19A94.36,94.36,0,0,0,99.53,0c-17,0-26.86,8.3-26.86,20.91C72.67,44.07,103,40.18,103,51.76c0,4.31-3,7-8.51,7a35.85,35.85,0,0,1-7.27-.82,74.1,74.1,0,0,0-.93-7.79H73.8ZM33.52,57.3c-11,0-16.4-8-16.4-21.53,0-13.84,6.56-21.21,16.4-21.21,11,0,16.4,8,16.4,21.52,0,13.84-6.56,21.22-16.4,21.22M32.39,71.85c18.55,0,34.54-13.22,34.54-37.41C66.93,12.3,55.86,0,34.64,0,16,0,0,13.22,0,37.41,0,59.55,11.07,71.85,32.39,71.85"/></svg>