<svg id="Ebene_1" data-name="Ebene 1" xmlns="http://www.w3.org/2000/svg" viewBox="0 0 242.24 114.99"><defs><style>.cls-1{fill:#d20a11;}.cls-2{fill:#1d1d1b;}</style></defs><polygon class="cls-1" points="0 114.99 0 112.49 242.24 112.49 242.24 114.99 0 114.99 0 114.99"/><polygon class="cls-1" points="0 2.5 0 0 242.24 0 242.24 2.5 0 2.5 0 2.5"/><path class="cls-2" d="M54.71,59.67h2.37L55.63,80.53H.14V78.26H1.53q5,0,6.45-1.34a6,6,0,0,0,1.85-3.39,78.54,78.54,0,0,0,.4-10.45V30.21a76.27,76.27,0,0,0-.42-10.08,4.77,4.77,0,0,0-1.93-3.39q-1.51-1-6.35-1V13.5H49.47L51,30.21H48.73q-1.57-7-3.88-10a9.8,9.8,0,0,0-5.46-3.71,48.13,48.13,0,0,0-10.18-.76h-9.3V43.9h7.14q4.9,0,6.87-.84a4.41,4.41,0,0,0,2.57-2.54,22.86,22.86,0,0,0,.62-6.65h2.28V56.8H37.11q0-5.58-.94-7.49a4.56,4.56,0,0,0-2.75-2.47,22.84,22.84,0,0,0-6.12-.57H19.91V62.14q0,11.91,1.53,14t8.25,2.11h5a23.84,23.84,0,0,0,8.69-1.35,15.54,15.54,0,0,0,6.49-5.57A32.58,32.58,0,0,0,54.71,59.67Z"/><path class="cls-2" d="M115.69,44.4q11.41.84,16.95,5.69a15.45,15.45,0,0,1,5.54,12.13,16.63,16.63,0,0,1-3.76,10.91,17.36,17.36,0,0,1-9.61,6,69.78,69.78,0,0,1-15.7,1.41H82.82V78.26h2.57c2.86,0,4.85-.37,6-1.09a4.94,4.94,0,0,0,2.1-3.39,74.77,74.77,0,0,0,.45-10.7V30.46a71.22,71.22,0,0,0-.47-10.53,4.57,4.57,0,0,0-2-3.26c-1-.6-3.22-.89-6.63-.89H83.51V13.5l11-.29,12.57-.4q27.51,0,27.51,15.79a13,13,0,0,1-4.72,10.47Q125.18,43,115.69,44.4Zm-12.11-.94c.82,0,1.51,0,2.07,0q10.68,0,14.58-3.37t3.91-10.87a17.54,17.54,0,0,0-1.53-8.11,10.42,10.42,0,0,0-4.6-4.42q-3.06-1.56-10.48-1.56c-1.28,0-2.6.05-4,.15Zm0,2.42V60.81q0,9.54.34,12.11a6.06,6.06,0,0,0,1.86,3.9c1,.89,3,1.34,6,1.34q7.92,0,11.87-4.06t4-12.16q0-8.3-4.47-12.23t-15.75-3.93C106.15,45.78,104.89,45.81,103.58,45.88Z"/><path class="cls-2" d="M186.06,47.61l20.46-18.44q7.11-6.37,7.12-9.09c0-2.74-2.38-4.17-7.12-4.3V13.5h25.31v2.28a17.21,17.21,0,0,0-6.26,1.33,23.91,23.91,0,0,0-5.77,3.37q-2.62,2.09-9.75,8.77L197.86,40.5,223,65.8q8.6,8.79,11.51,10.62a14.07,14.07,0,0,0,7.57,1.84v2.27H207.21V78.26h1.34c3.75,0,6.09-.32,7-.94A2.75,2.75,0,0,0,217,75q0-2.07-7.17-9.24L190.86,46.68l-4.8,4.19V63.08a84.17,84.17,0,0,0,.39,10.36,5.33,5.33,0,0,0,2,3.63q1.61,1.19,6.16,1.19h1.28v2.27H165.74V78.26h2.08c2.86,0,4.85-.37,6-1.09a5.08,5.08,0,0,0,2.13-3.39,72.11,72.11,0,0,0,.47-10.7V30.21c0-5.54-.18-9.06-.52-10.58a4.28,4.28,0,0,0-2-3.06c-1-.53-3.41-.79-7.17-.79V13.5h29.71v2.28H195.1c-3.3,0-5.45.27-6.47.81a4.32,4.32,0,0,0-2.06,3q-.51,2.22-.51,10.58Z"/><g id="Immobilien"><path class="cls-2" d="M21.09,93.05l.05,1.45v7H19.52V91.11h1.61l5.15,6.75L31,91.11h1.81v10.41H31v-7a7.52,7.52,0,0,1,.13-1.45,5.62,5.62,0,0,1-.69,1.45l-4,5.38H26l-4.12-5.33A4.59,4.59,0,0,1,21.09,93.05Z"/><path class="cls-2" d="M51.77,93.05l0,1.45v7H50.2V91.11h1.61L57,97.86l4.74-6.75h1.81v10.41H61.7v-7a8.41,8.41,0,0,1,.13-1.45,5.62,5.62,0,0,1-.69,1.45l-4,5.38h-.52l-4.12-5.33A4.79,4.79,0,0,1,51.77,93.05Z"/><path class="cls-2" d="M80.65,93.59a2.71,2.71,0,0,1,.54-2,2.85,2.85,0,0,1,2-.53h7.47a2.89,2.89,0,0,1,2,.53,2.71,2.71,0,0,1,.54,2v5.48a2.68,2.68,0,0,1-.54,1.94,3,3,0,0,1-2,.51H83.19a3,3,0,0,1-2-.5,2.71,2.71,0,0,1-.52-2ZM82.6,100h8.65v-7.3H82.6Z"/><path class="cls-2" d="M110.31,101.52V91.11H119c1.51,0,2.26.68,2.26,2v1.2c0,1.05-.6,1.64-1.79,1.79a1.83,1.83,0,0,1,1.87,2v1.32q0,2-3,2Zm9-7v-1c0-.57-.37-.86-1.1-.86h-6v2.68h6a1.69,1.69,0,0,0,.85-.16A.77.77,0,0,0,119.36,94.47Zm-7.1,2.36V100h6a1.3,1.3,0,0,0,.92-.25,1.33,1.33,0,0,0,.25-.93V98a1,1,0,0,0-1.17-1.18Z"/><path class="cls-2" d="M158.5,101.52V91.11h1.95V100h8.06v1.56Z"/><path class="cls-2" d="M140.84,101.52H138.9V91.14h1.94Z"/><path class="cls-2" d="M2,101.52H0V91.14H2Z"/><path class="cls-2" d="M186.05,101.52h-2V91.14h2Z"/><path class="cls-2" d="M203.34,101.52V91.11h10.43v1.55h-8.48v2.68h5.11v1.55h-5.11V100h8.58v1.52Z"/><path class="cls-2" d="M231.78,93.2a12.62,12.62,0,0,1,.14,1.86v6.46h-1.81V91.11h1.49l7.59,6.8a7.68,7.68,0,0,1,1.24,1.43,11.11,11.11,0,0,1-.17-1.94V91.11h1.81v10.41h-1.34L233,94.62A6,6,0,0,1,231.78,93.2Z"/></g><rect id="Kasten1" class="cls-1" x="69.17" y="41.69" width="9.96" height="9.96"/><rect id="Kasten2" class="cls-1" x="150.47" y="41.69" width="9.96" height="9.96"/></svg>