<svg id="Logo" xmlns="http://www.w3.org/2000/svg" xmlns:xlink="http://www.w3.org/1999/xlink" viewBox="0 0 297.64 50.55"><defs><style>.cls-1{fill:none;}.cls-2{fill:#8d152e;}.cls-3{fill:#494948;}.cls-4{clip-path:url(#clip-path);}.cls-5{fill:url(#Unbenannter_Verlauf_4);}</style><clipPath id="clip-path"><path class="cls-1" d="M12,31.41a32.81,32.81,0,0,1,.06-15L0,2.8C0,21,4.1,25.94,12,31.41"/></clipPath><linearGradient id="Unbenannter_Verlauf_4" x1="-7704.06" y1="1392.03" x2="-7703.08" y2="1392.03" gradientTransform="matrix(12.75, 30.03, 30.03, -12.75, 56398.41, 249089.86)" gradientUnits="userSpaceOnUse"><stop offset="0" stop-color="#8d152e"/><stop offset="1" stop-color="#494948"/></linearGradient></defs><path class="cls-2" d="M56.72,4.17V21.23h5.1V4.17h5.72V.3H51V4.17ZM84.06,8.68H76V.3h-5.1V21.23H76V12.55h8.08v8.68h5.1V.3h-5.1Zm19.36,8.05a5.19,5.19,0,0,1-4-1.64,6.27,6.27,0,0,1-1.51-4.39A6.23,6.23,0,0,1,99.4,6.32a5.76,5.76,0,0,1,8,0A6.23,6.23,0,0,1,109,10.7a6.27,6.27,0,0,1-1.5,4.39,5.23,5.23,0,0,1-4,1.64m0,4.71a10.47,10.47,0,0,0,7.6-3,10.33,10.33,0,0,0,3.1-7.7A10.29,10.29,0,0,0,111.06,3,11.1,11.1,0,0,0,95.82,3a10.2,10.2,0,0,0-3.11,7.67,10.3,10.3,0,0,0,3.11,7.7,10.53,10.53,0,0,0,7.62,3M135.58.3l-6,14.43L123.56.3h-5.84V21.23h5.1V9.42l4.86,11.81h3.78l4.86-11.81V21.23h5.1V.3ZM165,21.23,157.7.24h-6.2l-7.27,21h5.42l1.17-3.52h7.51l1.16,3.52ZM154.57,6.38l2.48,7.45h-5Zm21.84-1.74a2.77,2.77,0,0,1,.73,1.74h5.55a5.81,5.81,0,0,0-2.18-4.84A9,9,0,0,0,175,0a8.57,8.57,0,0,0-5.56,1.76,5.71,5.71,0,0,0-2.18,4.68A5.52,5.52,0,0,0,167.87,9a4.31,4.31,0,0,0,1.48,1.67,10.47,10.47,0,0,0,2,1,19.68,19.68,0,0,0,2.22.7c.74.19,1.42.39,2,.61a4.1,4.1,0,0,1,1.47.89,2,2,0,0,1,.57,1.46,1.93,1.93,0,0,1-.63,1.48,2.43,2.43,0,0,1-1.73.58,2.36,2.36,0,0,1-2.56-2.5H167.3a5.81,5.81,0,0,0,2.16,4.83,9,9,0,0,0,5.7,1.7,8.29,8.29,0,0,0,5.69-1.9A5.83,5.83,0,0,0,183,15a5.53,5.53,0,0,0-.56-2.61A4.38,4.38,0,0,0,181,10.7a10.19,10.19,0,0,0-2-1c-.74-.26-1.48-.49-2.22-.68s-1.42-.39-2-.6a3.58,3.58,0,0,1-1.47-.89A2.11,2.11,0,0,1,172.67,6a1.79,1.79,0,0,1,.61-1.46A2.37,2.37,0,0,1,174.85,4a2.12,2.12,0,0,1,1.56.62"/><path class="cls-2" d="M205.51.31l-6.92,9.18V.31h-5.1V21.24h5.1V12l7,9.24h6.56l-8.62-10.47L212.19.31Zm9.75,0V21.24h11.45V17.36h-6.35V.31Zm60,0L268.3,9.49V.31h-5.1V21.24h5.1V12l7,9.24h6.55l-8.61-10.47L281.89.31ZM229.84,21.24h5.1V.31h-5.1Zm23.49-21V13.46L244.81.25h-5.1v21h5.1V8l8.52,13.21h5.1V.25ZM285,.25v21h12.67V17.36h-7.58V12.5h6.68V8.63h-6.68V4.12h7.58V.25Z"/><path class="cls-3" d="M61.82,29.42h-5.1V50.34h5.1Zm22.63,0-6,14.43-6-14.43H66.59V50.34h5.1V38.54l4.86,11.8h3.79l4.86-11.8v11.8h5.1V29.42Zm28.47,0-6,14.43-6-14.43H95.07V50.34h5.09V38.54L105,50.34h3.79l4.86-11.8v11.8h5.1V29.42ZM133,45.84a5.17,5.17,0,0,1-4-1.64,6.19,6.19,0,0,1-1.51-4.38A6.19,6.19,0,0,1,129,35.44a5.76,5.76,0,0,1,8.05,0,6.23,6.23,0,0,1,1.51,4.38,6.23,6.23,0,0,1-1.51,4.38,5.18,5.18,0,0,1-4,1.64m0,4.71a10.43,10.43,0,0,0,7.6-3,10.29,10.29,0,0,0,3.1-7.69,10.33,10.33,0,0,0-3.08-7.68,11.12,11.12,0,0,0-15.24,0,10.24,10.24,0,0,0-3.11,7.68,10.26,10.26,0,0,0,3.11,7.69,10.49,10.49,0,0,0,7.62,3m14.28-.21h9.6A8,8,0,0,0,162,48.87a4.82,4.82,0,0,0,1.84-4,5.14,5.14,0,0,0-1.25-3.43,5.26,5.26,0,0,0-3.37-1.76q4.14-1.25,4.14-4.8A4.89,4.89,0,0,0,161.51,31a7.81,7.81,0,0,0-5.09-1.54h-9.09Zm8.44-17.05a2.6,2.6,0,0,1,1.77.58,2.13,2.13,0,0,1,.67,1.7,2.08,2.08,0,0,1-.67,1.69,2.7,2.7,0,0,1-1.77.56h-3.34V33.29Zm-3.34,8.41h3.91a2.3,2.3,0,0,1,1.69.65,2.38,2.38,0,0,1,.66,1.76,2.2,2.2,0,0,1-.69,1.73,2.44,2.44,0,0,1-1.73.63h-3.84Zm20.39-12.28h-5.1V50.34h5.1Zm4.77,20.92H189V46.47h-6.35v-17h-5.1Zm19.68-20.92h-5.1V50.34h5.1Zm4.77-.06v21h12.67V46.47h-7.57V41.61h6.68V37.73h-6.68v-4.5h7.57V29.36Zm31,13.2-8.53-13.2h-5.1v21h5.1V37.14L233,50.34h5.1v-21H233Z"/><g class="cls-4"><polygon class="cls-5" points="2.99 0.83 22.34 27.05 1.84 35.75 0 2.8 2.99 0.83"/></g><path class="cls-3" d="M11.94,31.34h0m0,0c2.18,8.43,9.89,16.81,30.73,19.21V35.22S25,40.39,11.94,31.34"/><polygon class="cls-2" points="2.99 0.25 14.62 13.83 42.73 13.83 32.28 0.25 2.99 0.25"/></svg>